<svg xmlns="http://www.w3.org/2000/svg" width="26" height="26"><circle cx="37.045" cy="28.409" r="12.5" fill="#50b748" fill-rule="evenodd" transform="matrix(1.04 0 0 1.04 -25.527 -16.545)"/><path fill="#10a711" d="M16.625 25.475a13 13 0 0 0 .217-.055 13 13 0 0 0 1.22-.445 13 13 0 0 0 1.17-.567 13 13 0 0 0 1.108-.68 13 13 0 0 0 1.035-.785 13 13 0 0 0 .951-.886 13 13 0 0 0 .858-.977 13 13 0 0 0 .755-1.057 13 13 0 0 0 .647-1.127 13 13 0 0 0 .531-1.185 13 13 0 0 0 .022-.065l-4.285-4.285a.5.5 44.999 0 0 .023-.681l4.437 4.435a13 13 0 0 0 .002-.004l-7.462-7.463a.5.5 44.999 0 0-.36-.148.5.5 44.999 0 0-.494.504V11.3h-5.502a.5.5 44.999 0 0-.5.498v1l-.996-.996a.5.5 0 0 0-.508-.508.5.5 0 0 0-.49.508v1.002l-1.002-1.002a.5.5 0 0 0-.508-.508.5.5 0 0 0-.492.508v1l-1-1a.5.5 0 0 0-.512-.506v-.002a.5.5 0 0 0-.49.508v2.047a.5.5 0 0 0 .506.507h.004l11.115 11.118z" color="#000" font-family="sans-serif" font-weight="400" style="line-height:normal;text-indent:0;text-align:start;text-decoration-line:none;text-decoration-style:solid;text-decoration-color:#000;text-transform:none;block-progression:tb;isolation:auto;mix-blend-mode:normal"/><path fill="#fff" d="M12.695 1048.111a.469.469 44.999 0 0 .339-.137l2.798-2.805a.469.469 44.999 0 0 0-.663l-2.813-2.82a.469.469 44.999 0 0-.802.333v1.216H7.06a.469.469 44.999 0 0-.469.469v1.919a.469.469 44.999 0 0 .469.468h5.165v1.553a.469.469 44.999 0 0 .462.467zm.472-1.598v-.275a.469.469 44.999 0 0 0-.011l-.015-.612a.469.469 44.999 0 0-.466-.46H7.529v-.98h5.157a.469.469 44.999 0 0 .468-.464v-.28a.469.469 44.999 0 0 0-.01v-.267l1.68 1.684-1.67 1.674zm-7.974-.41a.469.469 0 0 0 .464-.477v-1.92a.469.469 0 1 0-.938 0v1.92a.469.469 0 0 0 .476.476zm-1.875 0a.469.469 0 0 0 .462-.477v-1.92a.469.469 0 1 0-.938 0v1.92a.469.469 0 0 0 .476.476zm-1.875 0a.469.469 0 0 0 .462-.477v-1.92a.47.47 0 1 0-.94 0v1.92a.469.469 0 0 0 .477.476z" color="#000" font-family="sans-serif" font-weight="400" overflow="visible" style="line-height:normal;text-indent:0;text-align:start;text-decoration-line:none;text-decoration-style:solid;text-decoration-color:#000;text-transform:none;block-progression:tb;isolation:auto;mix-blend-mode:normal" transform="translate(3.97 -1101.225) scale(1.06642)"/></svg>